Coordinates
version=1
nRows=17
nColumns=38
inDegrees=no

Units are S.I. units (second, meters, Newtons, ...)
If the header above contains a line with 'inDegrees', this indicates whether rotational values are in degrees (yes) or radians (no).

endheader
time	pelvis_tilt	pelvis_list	pelvis_rotation	pelvis_tx	pelvis_ty	pelvis_tz	hip_flexion_r	hip_adduction_r	hip_rotation_r	knee_angle_r	ankle_angle_r	subtalar_angle_r	mtp_angle_r	hip_flexion_l	hip_adduction_l	hip_rotation_l	knee_angle_l	ankle_angle_l	subtalar_angle_l	mtp_angle_l	lumbar_extension	lumbar_bending	lumbar_rotation	arm_flex_r	arm_add_r	arm_rot_r	elbow_flex_r	pro_sup_r	wrist_flex_r	wrist_dev_r	arm_flex_l	arm_add_l	arm_rot_l	elbow_flex_l	pro_sup_l	wrist_flex_l	wrist_dev_l
0	0.116488	-0.0595087	3.15758	-0.350547	0.926994	0.0778551	-0.0640518	-0.117506	-0.227105	0.941902	-0.251609	0	0	0.632058	0.123429	-0.052091	0.551314	0.0412949	0	0	-0.0768212	-0.152636	0.465575	0.334318	-0.697355	0.922358	1.88553	1.44559	0	0	0.208214	-0.549958	0.947357	1.74393	1.29585	0	0
0.00999091	0.101957	-0.0677482	3.17414	-0.348684	0.921623	0.0786512	-0.0426285	-0.123832	-0.222452	1.00535	-0.226813	0	0	0.619432	0.134796	-0.0497031	0.603061	0.0874918	0	0	-0.10684	-0.163117	0.428562	0.312152	-0.682214	0.901695	1.8555	1.44624	0	0	0.243534	-0.535457	0.952001	1.74139	1.29275	0	0
0.0199818	0.0875755	-0.0757858	3.19047	-0.346813	0.916305	0.0794326	-0.0208573	-0.129891	-0.217532	1.06845	-0.202116	0	0	0.606549	0.145827	-0.0474003	0.654057	0.133253	0	0	-0.13665	-0.173294	0.391748	0.289701	-0.667126	0.880873	1.82571	1.44681	0	0	0.278838	-0.520906	0.956621	1.73893	1.28968	0	0
0.0299727	0.073641	-0.0832963	3.20613	-0.34493	0.911124	0.0801821	0.00186981	-0.135296	-0.211908	1.13063	-0.177656	0	0	0.593132	0.155986	-0.0453268	0.703241	0.178094	0	0	-0.16579	-0.182681	0.355526	0.266554	-0.652234	0.859749	1.7966	1.44714	0	0	0.313996	-0.506228	0.96112	1.73671	1.28671	0	0
0.0399636	0.0605536	-0.0899167	3.22056	-0.343036	0.906174	0.0808894	0.026289	-0.139671	-0.20509	1.19116	-0.15356	0	0	0.579003	0.164705	-0.0435962	0.749522	0.221585	0	0	-0.193581	-0.190738	0.320383	0.242343	-0.637777	0.838325	1.76876	1.44705	0	0	0.348718	-0.491369	0.96529	1.73495	1.28398	0	0
0.0499545	0.0487266	-0.0953262	3.23325	-0.341142	0.901551	0.0815543	0.0530816	-0.14273	-0.196684	1.24922	-0.129925	0	0	0.564081	0.171545	-0.0422034	0.791922	0.26333	0	0	-0.219243	-0.196992	0.286736	0.216851	-0.624045	0.816802	1.74278	1.44631	0	0	0.382584	-0.476345	0.968828	1.73393	1.28165	0	0
0.0599455	0.0384914	-0.0993036	3.24382	-0.339267	0.897347	0.0821841	0.0826885	-0.144319	-0.186542	1.30395	-0.106808	0	0	0.548304	0.176288	-0.0409961	0.829634	0.302978	0	0	-0.242056	-0.201111	0.25481	0.190041	-0.611328	0.795541	1.71928	1.44477	0	0	0.415128	-0.461287	0.971382	1.73399	1.27992	0	0
0.0699364	0.0300482	-0.101742	3.25213	-0.337439	0.893651	0.082789	0.115218	-0.144414	-0.17481	1.3544	-0.0842526	0	0	0.531568	0.178932	-0.0397025	0.862038	0.340228	0	0	-0.261496	-0.202929	0.224591	0.162012	-0.599881	0.774964	1.69877	1.4424	0	0	0.445911	-0.446432	0.972615	1.73551	1.27896	0	0
0.0799273	0.0234807	-0.102619	3.25824	-0.335694	0.890549	0.0833765	0.150481	-0.14307	-0.161885	1.39966	-0.0623099	0	0	0.513725	0.179609	-0.038001	0.888676	0.374832	0	0	-0.277281	-0.202421	0.195916	0.132887	-0.589916	0.755407	1.6817	1.43935	0	0	0.474595	-0.432087	0.972288	1.73886	1.27893	0	0
0.0899182	0.0187941	-0.101971	3.26236	-0.334069	0.888115	0.083951	0.188074	-0.140399	-0.148325	1.43884	-0.0410391	0	0	0.494604	0.178513	-0.0355852	0.909202	0.406558	0	0	-0.289338	-0.19967	0.168542	0.102769	-0.581581	0.737056	1.6684	1.4359	0	0	0.500966	-0.418575	0.970298	1.74436	1.27992	0	0
0.0999091	0.0159475	-0.09987	3.26482	-0.332599	0.88641	0.0845159	0.227456	-0.136553	-0.134784	1.47112	-0.0205088	0	0	0.474042	0.175864	-0.0321912	0.923355	0.435154	0	0	-0.297754	-0.194836	0.142175	0.0717765	-0.574954	0.71999	1.65897	1.43235	0	0	0.524899	-0.406202	0.966664	1.75222	1.28204	0	0
0.1099	0.0148595	-0.0964106	3.26598	-0.331318	0.885487	0.0850772	0.267986	-0.131716	-0.121947	1.49578	-0.00080705	0	0	0.451886	0.171891	-0.0275841	0.930954	0.460309	0	0	-0.302716	-0.188112	0.116517	0.0400301	-0.570042	0.704188	1.65331	1.429	0	0	0.54635	-0.39521	0.961535	1.76249	1.28533	0	0
0.119891	0.0154229	-0.0916912	3.26622	-0.330256	0.885382	0.0856451	0.308957	-0.126087	-0.11046	1.5122	0.0179625	0	0	0.428024	0.166825	-0.0215596	0.931917	0.481657	0	0	-0.304451	-0.179685	0.0913453	0.00761933	-0.566792	0.689511	1.65113	1.42613	0	0	0.565333	-0.385733	0.955184	1.77498	1.28979	0	0
0.129882	0.0175265	-0.0858094	3.26585	-0.32944	0.886113	0.0862323	0.349664	-0.119858	-0.100863	1.51986	0.0356861	0	0	0.402423	0.160868	-0.0139757	0.926285	0.498779	0	0	-0.303169	-0.169727	0.0665791	-0.025442	-0.565106	0.675677	1.65198	1.4239	0	0	0.581913	-0.377776	0.947993	1.78928	1.29531	0	0
0.139873	0.0210848	-0.0788704	3.26509	-0.328897	0.88768	0.0868511	0.389456	-0.113202	-0.0935391	1.51837	0.0522444	0	0	0.375161	0.154187	-0.00480529	0.914233	0.511204	0	0	-0.299039	-0.158406	0.0423021	-0.0592297	-0.56484	0.662264	1.65539	1.42239	0	0	0.596206	-0.371222	0.940431	1.80482	1.3016	0	0
0.149864	0.0260548	-0.0710064	3.26407	-0.328646	0.890061	0.08751	0.427786	-0.106282	-0.088685	1.50748	0.067514	0	0	0.346444	0.146923	0.00583033	0.89607	0.518426	0	0	-0.292181	-0.145921	0.0187369	-0.0938836	-0.5658	0.648759	1.66085	1.42155	0	0	0.608369	-0.365869	0.933021	1.82092	1.30824	0	0
0.159855	0.0324273	-0.0623822	3.26281	-0.328699	0.89321	0.0882121	0.464198	-0.099241	-0.0863206	1.48707	0.0813844	0	0	0.316601	0.139204	0.017681	0.872253	0.519938	0	0	-0.28269	-0.132504	-0.00386061	-0.129504	-0.56775	0.634702	1.66789	1.42127	0	0	0.618543	-0.361496	0.926242	1.83695	1.3148	0	0
